<svg width="256" height="185" viewBox="0 0 256 185" fill="none" xmlns="http://www.w3.org/2000/svg">
<g clip-path="url(#clip0_4_38)">
<path d="M70.6407 92.2784C70.6353 89.0646 71.2636 85.8813 72.4897 82.9105C73.7157 79.9398 75.5156 77.24 77.7862 74.9655C80.0567 72.6911 82.7535 70.8867 85.7222 69.6556C88.6908 68.4244 91.8731 67.7907 95.0869 67.7908H94.9485C98.1624 67.7907 101.345 68.4244 104.313 69.6556C107.282 70.8867 109.979 72.6911 112.249 74.9655C114.52 77.24 116.32 79.9398 117.546 82.9105C118.772 85.8813 119.4 89.0646 119.395 92.2784C119.395 98.762 116.819 104.98 112.235 109.564C107.65 114.149 101.432 116.725 94.9485 116.725H95.0869C88.6034 116.725 82.3854 114.149 77.8008 109.564C73.2163 104.98 70.6407 98.762 70.6407 92.2784ZM185.013 48.9339H230.53C237.014 48.9339 243.232 46.3583 247.816 41.7737C252.401 37.1892 254.976 30.9712 254.976 24.4877C254.982 21.2739 254.353 18.0905 253.127 15.1198C251.901 12.149 250.101 9.44922 247.831 7.17479C245.56 4.90035 242.863 3.09595 239.895 1.86482C236.926 0.633687 233.744 -4.63189e-06 230.53 0L185.013 0C181.8 -4.63189e-06 178.617 0.633687 175.649 1.86482C172.68 3.09595 169.983 4.90035 167.713 7.17479C165.442 9.44922 163.642 12.149 162.416 15.1198C161.19 18.0905 160.562 21.2739 160.567 24.4877C160.567 30.9712 163.143 37.1892 167.727 41.7737C172.312 46.3583 178.53 48.9339 185.013 48.9339ZM28.6796 184.515H117.084C123.568 184.515 129.786 181.94 134.37 177.355C138.955 172.771 141.53 166.553 141.53 160.069C141.536 156.855 140.908 153.672 139.682 150.701C138.455 147.731 136.656 145.031 134.385 142.756C132.114 140.482 129.418 138.677 126.449 137.446C123.48 136.215 120.298 135.581 117.084 135.582H28.6796C25.4658 135.581 22.2835 136.215 19.3149 137.446C16.3462 138.677 13.6495 140.482 11.3789 142.756C9.10831 145.031 7.30848 147.731 6.08239 150.701C4.8563 153.672 4.22801 156.855 4.23346 160.069C4.23346 166.553 6.80903 172.771 11.3936 177.355C15.9781 181.94 22.1961 184.515 28.6796 184.515ZM144.782 116.725H153.428L173.627 67.7908H162.075L149.762 99.8876H149.624L137.518 67.7908H125.205L144.782 116.725ZM189.676 116.725H200.467V67.7908H189.676V116.725ZM220.389 116.725H254.907V106.805H231.18V96.8439H252.417V86.8828H231.18V77.7518H253.662V67.7908H220.458L220.389 116.725ZM13.9732 48.9754H24.7644V9.54604H38.7376V0H0V9.54604H13.9732V48.9754ZM53.9559 48.9754H64.7471V27.808H85.6377V48.9754H96.4289V0H85.6377V18.262H64.6779V0H53.9559V48.9754ZM111.025 48.9754H145.612V39.0143H121.747V29.0532H142.983V19.0921H121.747V9.96109H144.228V0H111.025V48.9754ZM1.72936 116.766H12.4514V79.2045H12.5897L25.0411 116.766H33.2036L46.07 79.2045H46.2084V116.766H56.9996V67.7908H40.7436L29.399 99.7492H29.2607L17.9853 67.7908H1.66018L1.72936 116.766ZM156.804 184.557H174.319C177.867 184.575 181.396 184.038 184.778 182.966C187.97 181.969 190.949 180.388 193.563 178.304C196.105 176.235 198.168 173.638 199.609 170.694C201.206 167.431 202.021 163.84 201.989 160.208C202.102 156.275 201.306 152.369 199.665 148.794C198.222 145.78 196.077 143.157 193.411 141.143C190.619 139.141 187.452 137.72 184.1 136.965C180.449 136.053 176.699 135.588 172.936 135.582H156.735L156.804 184.557ZM167.609 145.543H173.973C176.156 145.535 178.329 145.823 180.434 146.4C182.369 146.927 184.19 147.809 185.802 149.001C187.334 150.168 188.575 151.674 189.427 153.401C190.377 155.346 190.851 157.489 190.81 159.654C190.87 162.07 190.397 164.469 189.427 166.682C188.6 168.506 187.33 170.095 185.733 171.303C184.08 172.515 182.197 173.377 180.199 173.835C177.931 174.357 175.609 174.613 173.281 174.596H167.54L167.609 145.543ZM217.608 184.557H237.669C239.868 184.552 242.061 184.32 244.213 183.865C246.298 183.449 248.297 182.677 250.12 181.582C251.852 180.549 253.32 179.129 254.409 177.432C255.576 175.479 256.152 173.23 256.069 170.957C256.081 169.448 255.823 167.949 255.308 166.53C254.831 165.19 254.092 163.958 253.136 162.905C252.174 161.851 251.024 160.983 249.747 160.346C248.368 159.642 246.881 159.174 245.347 158.962V158.824C247.723 158.141 249.851 156.786 251.476 154.923C253.067 152.977 253.889 150.516 253.786 148.005C253.897 145.751 253.343 143.515 252.195 141.572C251.165 139.972 249.734 138.67 248.045 137.795C246.238 136.872 244.287 136.264 242.276 135.997C240.153 135.705 238.013 135.557 235.87 135.554H217.608V184.557ZM228.399 144.712H235.732C236.59 144.717 237.447 144.796 238.291 144.948C239.112 145.091 239.906 145.362 240.643 145.75C241.334 146.118 241.92 146.656 242.345 147.313C242.807 148.069 243.034 148.946 242.995 149.831C243.02 150.698 242.819 151.556 242.414 152.322C242.04 152.997 241.502 153.568 240.851 153.982C240.186 154.409 239.451 154.713 238.679 154.881C237.871 155.063 237.045 155.156 236.216 155.158H228.275L228.399 144.712ZM228.399 164.289H236.562C237.511 164.294 238.459 164.363 239.398 164.496C240.35 164.626 241.281 164.882 242.165 165.257C243.017 165.607 243.768 166.163 244.351 166.876C244.946 167.672 245.249 168.649 245.209 169.643C245.244 170.585 245.019 171.518 244.559 172.341C244.134 173.061 243.553 173.676 242.857 174.139C242.155 174.606 241.371 174.935 240.546 175.108C239.714 175.287 238.866 175.38 238.015 175.384H228.33L228.399 164.289Z" fill="url(#paint0_linear_4_38)"/>
</g>
<defs>
<linearGradient id="paint0_linear_4_38" x1="0" y1="92.2784" x2="256" y2="92.2784" gradientUnits="userSpaceOnUse">
<stop stop-color="#90CEA1"/>
<stop offset="0.56" stop-color="#3CBEC9"/>
<stop offset="1" stop-color="#00B3E5"/>
</linearGradient>
<clipPath id="clip0_4_38">
<rect width="256" height="184.557" fill="white"/>
</clipPath>
</defs>
</svg>
