<svg width="512" height="370" viewBox="0 0 512 370" fill="none" xmlns="http://www.w3.org/2000/svg">
<g clip-path="url(#clip0_4_34)">
<path d="M141.281 184.557C141.271 178.129 142.527 171.763 144.979 165.821C147.431 159.88 151.031 154.48 155.572 149.931C160.113 145.382 165.507 141.773 171.444 139.311C177.382 136.849 183.746 135.581 190.174 135.582H189.897C196.325 135.581 202.689 136.849 208.627 139.311C214.564 141.773 219.957 145.382 224.499 149.931C229.04 154.48 232.639 159.88 235.092 165.821C237.544 171.763 238.8 178.129 238.789 184.557C238.789 197.524 233.638 209.96 224.469 219.129C215.3 228.298 202.864 233.449 189.897 233.449H190.174C177.207 233.449 164.771 228.298 155.602 219.129C146.433 209.96 141.281 197.524 141.281 184.557ZM370.027 97.8677H461.06C474.027 97.8677 486.463 92.7166 495.632 83.5475C504.801 74.3784 509.952 61.9424 509.952 48.9754C509.963 42.5477 508.707 36.1811 506.255 30.2396C503.802 24.2981 500.203 18.8984 495.662 14.3496C491.12 9.8007 485.727 6.19189 479.79 3.72963C473.852 1.26737 467.488 -9.26377e-06 461.06 0L370.027 0C363.599 -9.26377e-06 357.235 1.26737 351.297 3.72963C345.36 6.19189 339.966 9.8007 335.425 14.3496C330.884 18.8984 327.284 24.2981 324.832 30.2396C322.38 36.1811 321.124 42.5477 321.134 48.9754C321.134 61.9424 326.286 74.3784 335.455 83.5475C344.624 92.7166 357.06 97.8677 370.027 97.8677ZM57.3593 369.031H234.169C247.136 369.031 259.572 363.88 268.741 354.71C277.91 345.541 283.061 333.105 283.061 320.138C283.072 313.711 281.815 307.344 279.363 301.403C276.911 295.461 273.311 290.061 268.77 285.513C264.229 280.964 258.835 277.355 252.898 274.893C246.961 272.43 240.596 271.163 234.169 271.163H57.3593C50.9316 271.163 44.5671 272.43 38.6298 274.893C32.6925 277.355 27.2989 280.964 22.7578 285.513C18.2166 290.061 14.617 295.461 12.1648 301.403C9.7126 307.344 8.45601 313.711 8.46693 320.138C8.46693 333.105 13.6181 345.541 22.7872 354.71C31.9563 363.88 44.3922 369.031 57.3593 369.031ZM289.563 233.449H306.857L347.255 135.582H324.15L299.524 199.775H299.248L275.037 135.582H250.411L289.563 233.449ZM379.351 233.449H400.934V135.582H379.351V233.449ZM440.778 233.449H509.814V213.61H462.361V193.688H504.834V173.766H462.361V155.504H507.324V135.582H440.917L440.778 233.449ZM27.9464 97.9507H49.5287V19.0921H77.4751V0H0V19.0921H27.9464V97.9507ZM107.912 97.9507H129.494V55.6161H171.275V97.9507H192.858V0H171.275V36.524H129.356V0H107.912V97.9507ZM222.049 97.9507H291.224V78.0285H243.493V58.1064H285.966V38.1842H243.493V19.9222H288.457V0H222.049V97.9507ZM3.45871 233.532H24.9027V158.409H25.1794L50.0821 233.532H66.4073L92.1401 158.409H92.4168V233.532H113.999V135.582H81.4872L58.7981 199.498H58.5214L35.9706 135.582H3.32036L3.45871 233.532ZM313.608 369.114H348.638C355.734 369.15 362.792 368.077 369.556 365.932C375.94 363.938 381.898 360.776 387.127 356.607C392.211 352.469 396.336 347.277 399.218 341.389C402.412 334.862 404.041 327.681 403.978 320.415C404.203 312.55 402.612 304.738 399.329 297.588C396.444 291.56 392.155 286.313 386.822 282.286C381.237 278.282 374.905 275.441 368.201 273.93C360.897 272.105 353.399 271.176 345.871 271.163H313.47L313.608 369.114ZM335.218 291.085H347.946C352.311 291.07 356.658 291.647 360.868 292.801C364.739 293.853 368.379 295.617 371.604 298.003C374.668 300.336 377.15 303.347 378.853 306.802C380.754 310.692 381.703 314.979 381.62 319.308C381.739 324.14 380.794 328.938 378.853 333.364C377.199 337.012 374.66 340.189 371.466 342.606C368.16 345.031 364.394 346.754 360.398 347.67C355.861 348.715 351.218 349.226 346.563 349.192H335.08L335.218 291.085ZM435.217 369.114H475.338C479.736 369.104 484.122 368.64 488.425 367.73C492.597 366.898 496.594 365.354 500.24 363.165C503.703 361.099 506.639 358.257 508.818 354.864C511.151 350.958 512.304 346.461 512.138 341.914C512.162 338.896 511.647 335.897 510.616 333.06C509.661 330.381 508.185 327.917 506.272 325.811C504.347 323.701 502.049 321.966 499.493 320.692C496.736 319.284 493.761 318.348 490.694 317.925V317.648C495.446 316.282 499.703 313.572 502.952 309.845C506.134 305.955 507.778 301.032 507.573 296.01C507.793 291.503 506.687 287.029 504.391 283.144C502.33 279.945 499.469 277.341 496.09 275.59C492.476 273.744 488.574 272.528 484.552 271.993C480.306 271.41 476.026 271.114 471.741 271.108H435.217V369.114ZM456.799 289.425H471.464C473.181 289.434 474.893 289.592 476.583 289.895C478.225 290.181 479.812 290.723 481.287 291.5C482.668 292.236 483.84 293.312 484.69 294.627C485.615 296.139 486.067 297.892 485.99 299.663C486.039 301.395 485.639 303.111 484.828 304.643C484.08 305.994 483.005 307.136 481.702 307.964C480.373 308.818 478.901 309.427 477.358 309.762C475.741 310.127 474.089 310.312 472.432 310.316H456.55L456.799 289.425ZM456.799 328.578H473.124C475.022 328.587 476.917 328.726 478.796 328.993C480.7 329.252 482.561 329.764 484.33 330.514C486.034 331.213 487.537 332.326 488.702 333.752C489.892 335.345 490.498 337.299 490.418 339.286C490.488 341.17 490.038 343.036 489.117 344.681C488.269 346.122 487.105 347.352 485.714 348.278C484.311 349.213 482.743 349.87 481.093 350.215C479.429 350.574 477.732 350.76 476.029 350.769H456.661L456.799 328.578Z" fill="url(#paint0_linear_4_34)"/>
</g>
<defs>
<linearGradient id="paint0_linear_4_34" x1="0" y1="184.557" x2="512" y2="184.557" gradientUnits="userSpaceOnUse">
<stop stop-color="#90CEA1"/>
<stop offset="0.56" stop-color="#3CBEC9"/>
<stop offset="1" stop-color="#00B3E5"/>
</linearGradient>
<clipPath id="clip0_4_34">
<rect width="512" height="369.114" fill="white"/>
</clipPath>
</defs>
</svg>
